<?xml version="1.0" encoding="UTF-8" standalone="no"?>
<svg
   xmlns:dc="http://purl.org/dc/elements/1.1/"
   xmlns:cc="http://creativecommons.org/ns#"
   xmlns:rdf="http://www.w3.org/1999/02/22-rdf-syntax-ns#"
   xmlns:svg="http://www.w3.org/2000/svg"
   xmlns="http://www.w3.org/2000/svg"
   xmlns:sodipodi="http://sodipodi.sourceforge.net/DTD/sodipodi-0.dtd"
   xmlns:inkscape="http://www.inkscape.org/namespaces/inkscape"
   data-v-fde0c5aa=""
   viewBox="0 0 300 102.42556"
   class="iconLeft"
   version="1.1"
   id="svg21"
   sodipodi:docname="versai.svg"
   width="300"
   height="102.42556"
   inkscape:version="1.0.1 (3bc2e813f5, 2020-09-07)">
  <metadata
     id="metadata25">
    <rdf:RDF>
      <cc:Work
         rdf:about="">
        <dc:format>image/svg+xml</dc:format>
        <dc:type
           rdf:resource="http://purl.org/dc/dcmitype/StillImage" />
        <dc:title />
      </cc:Work>
    </rdf:RDF>
  </metadata>
  <sodipodi:namedview
     pagecolor="#ffffff"
     bordercolor="#666666"
     borderopacity="1"
     objecttolerance="10"
     gridtolerance="10"
     guidetolerance="10"
     inkscape:pageopacity="0"
     inkscape:pageshadow="2"
     inkscape:window-width="958"
     inkscape:window-height="1048"
     id="namedview23"
     showgrid="false"
     fit-margin-top="0"
     fit-margin-left="0"
     fit-margin-right="0"
     fit-margin-bottom="0"
     inkscape:zoom="2.9666667"
     inkscape:cx="85.11236"
     inkscape:cy="78.155898"
     inkscape:window-x="1913"
     inkscape:window-y="0"
     inkscape:window-maximized="0"
     inkscape:current-layer="svg21"
     inkscape:document-rotation="0" />
  <!---->
  <rect
     data-v-fde0c5aa=""
     fill="url(#c7140db7-e9f8-4db9-a952-1994c5d8c7ea)"
     x="0"
     y="0"
     width="300"
     height="102.42556"
     class="logo-background-square"
     id="rect9"
     style="fill:url(#c7140db7-e9f8-4db9-a952-1994c5d8c7ea);stroke-width:0.58431" />
  <defs
     data-v-fde0c5aa=""
     id="defs11">
    <!---->
  </defs>
  <g
     data-v-fde0c5aa=""
     id="1b652265-2bcf-489e-9e24-9e1fb03da6af"
     fill="#ffffff"
     transform="matrix(3.6995959,0,0,3.6995959,110.09411,19.851426)"
     style="fill:#ffa500;fill-opacity:1">
    <path
       d="M 5.51,11.3 8.12,3.63 H 9.49 L 5.73,13.64 H 4.25 L 0.5,3.63 h 1.48 l 2.61,7.67 0.39,1.39 h 0.13 z m 10.62,0.99 v 0.74 0 q -0.26,0.18 -0.6,0.32 v 0 0 q -0.33,0.14 -0.7,0.24 v 0 0 q -0.36,0.1 -0.72,0.14 v 0 0 q -0.37,0.05 -0.68,0.05 v 0 0 q -0.7,0 -1.33,-0.23 v 0 0 Q 11.47,13.32 11,12.87 v 0 0 q -0.47,-0.46 -0.75,-1.12 v 0 0 Q 9.97,11.08 9.97,10.21 v 0 0 q 0,-0.89 0.29,-1.62 v 0 0 q 0.3,-0.74 0.8,-1.25 v 0 0 q 0.5,-0.52 1.15,-0.8 v 0 0 q 0.66,-0.28 1.37,-0.28 v 0 0 q 0.58,0 1.09,0.2 v 0 0 q 0.5,0.19 0.87,0.58 v 0 0 q 0.37,0.39 0.59,0.98 v 0 0 q 0.21,0.58 0.21,1.36 v 0 0 q 0,0.16 -0.02,0.37 v 0 0 q -0.01,0.22 -0.05,0.46 v 0 h -4.95 v 0 q 0,0.59 0.21,1.05 v 0 0 q 0.21,0.46 0.59,0.78 v 0 0 q 0.38,0.32 0.9,0.48 v 0 0 q 0.53,0.17 1.16,0.17 v 0 0 q 0.16,0 0.39,-0.02 v 0 0 q 0.22,-0.01 0.48,-0.05 v 0 0 q 0.26,-0.04 0.54,-0.12 v 0 0 q 0.28,-0.08 0.54,-0.21 z M 11.32,9.41 h 3.79 v 0 q 0,-0.52 -0.15,-0.91 v 0 0 Q 14.82,8.11 14.57,7.84 v 0 0 Q 14.33,7.57 14,7.44 v 0 0 Q 13.68,7.3 13.31,7.3 v 0 0 q -0.41,0 -0.77,0.17 v 0 0 Q 12.17,7.64 11.9,7.92 v 0 0 q -0.27,0.29 -0.42,0.67 v 0 0 q -0.16,0.39 -0.16,0.82 z m 7.04,4.23 V 6.4 h 1.01 l 0.21,2.17 v 0 Q 19.67,8.4 19.77,8.22 v 0 0 q 0.1,-0.18 0.19,-0.35 v 0 0 q 0.1,-0.17 0.2,-0.32 v 0 0 Q 20.25,7.4 20.33,7.29 v 0 0 q 0.15,-0.21 0.34,-0.4 v 0 0 Q 20.86,6.7 21.08,6.56 v 0 0 q 0.21,-0.14 0.46,-0.22 v 0 0 q 0.25,-0.08 0.53,-0.08 v 0 0 q 0.19,0 0.37,0.05 v 0 0 q 0.18,0.04 0.3,0.14 v 0 L 22.6,7.67 v 0 Q 22.48,7.64 22.36,7.63 v 0 0 Q 22.24,7.62 22.12,7.62 v 0 0 q -0.48,0 -0.84,0.15 v 0 0 Q 20.92,7.93 20.63,8.2 v 0 0 q -0.28,0.27 -0.51,0.63 v 0 0 q -0.23,0.36 -0.46,0.78 v 0 4.03 z m 5.54,-0.32 0.27,-1.1 0.12,-0.08 v 0 q 0.26,0.14 0.55,0.26 v 0 0 q 0.29,0.11 0.57,0.18 v 0 0 q 0.28,0.08 0.55,0.12 v 0 0 q 0.27,0.04 0.5,0.04 v 0 0 q 0.32,0 0.59,-0.07 v 0 0 q 0.27,-0.08 0.45,-0.21 v 0 0 q 0.19,-0.14 0.3,-0.33 v 0 0 q 0.1,-0.19 0.1,-0.43 v 0 0 q 0,-0.29 -0.16,-0.49 v 0 0 q -0.16,-0.19 -0.43,-0.33 v 0 0 Q 27.04,10.74 26.7,10.64 v 0 0 Q 26.36,10.53 26,10.42 v 0 0 q -0.35,-0.1 -0.69,-0.24 v 0 0 Q 24.96,10.04 24.7,9.83 v 0 0 q -0.27,-0.2 -0.43,-0.5 v 0 0 Q 24.1,9.03 24.1,8.6 v 0 0 q 0,-0.48 0.22,-0.91 v 0 0 q 0.21,-0.42 0.59,-0.74 v 0 0 q 0.38,-0.32 0.92,-0.5 v 0 0 q 0.54,-0.19 1.19,-0.19 v 0 0 q 0.16,0 0.38,0.02 v 0 0 q 0.22,0.01 0.46,0.04 v 0 0 q 0.25,0.03 0.51,0.08 v 0 0 q 0.25,0.05 0.49,0.13 v 0 l -0.27,1.06 -0.17,0.1 v 0 Q 28.23,7.59 28,7.51 v 0 0 Q 27.77,7.44 27.54,7.39 v 0 0 Q 27.3,7.35 27.08,7.32 v 0 0 Q 26.85,7.3 26.68,7.3 v 0 0 q -0.31,0 -0.57,0.07 v 0 0 q -0.26,0.07 -0.44,0.19 v 0 0 q -0.19,0.13 -0.29,0.31 v 0 0 q -0.1,0.18 -0.1,0.42 v 0 0 q 0,0.3 0.16,0.49 v 0 0 q 0.17,0.2 0.44,0.34 v 0 0 q 0.27,0.14 0.62,0.25 v 0 0 q 0.34,0.1 0.71,0.21 v 0 0 q 0.36,0.11 0.7,0.24 v 0 0 q 0.35,0.14 0.62,0.35 v 0 0 q 0.28,0.21 0.44,0.52 v 0 0 q 0.16,0.3 0.16,0.74 v 0 0 q 0,0.51 -0.22,0.94 v 0 0 q -0.23,0.43 -0.63,0.75 v 0 0 q -0.4,0.31 -0.94,0.49 v 0 0 q -0.54,0.17 -1.15,0.17 v 0 0 q -0.53,0 -1.13,-0.12 v 0 0 Q 24.47,13.54 23.9,13.32 Z m 11.2,-0.76 v 0 0 q -0.18,0.15 -0.42,0.36 v 0 0 q -0.24,0.21 -0.54,0.4 v 0 0 q -0.31,0.19 -0.67,0.32 v 0 0 q -0.36,0.14 -0.76,0.14 v 0 0 q -0.36,0 -0.71,-0.13 v 0 0 q -0.34,-0.12 -0.61,-0.37 v 0 0 q -0.27,-0.25 -0.43,-0.62 v 0 0 Q 30.8,12.29 30.8,11.81 v 0 0 q 0,-0.29 0.07,-0.59 v 0 0 q 0.08,-0.3 0.25,-0.58 v 0 0 q 0.17,-0.28 0.44,-0.52 v 0 0 Q 31.84,9.88 32.25,9.7 v 0 0 q 0.41,-0.18 0.96,-0.29 v 0 0 q 0.55,-0.1 1.27,-0.1 v 0 h 0.62 v -0.63 0 q 0,-0.31 -0.11,-0.57 v 0 0 Q 34.88,7.86 34.68,7.68 v 0 0 Q 34.49,7.5 34.22,7.4 v 0 0 Q 33.95,7.3 33.62,7.3 v 0 0 q -0.25,0 -0.52,0.06 v 0 0 q -0.28,0.05 -0.56,0.15 v 0 0 q -0.27,0.11 -0.53,0.24 v 0 0 q -0.25,0.14 -0.44,0.3 v 0 L 31.45,7.98 31.17,6.99 v 0 q 0.4,-0.22 0.77,-0.36 v 0 0 q 0.37,-0.14 0.71,-0.22 v 0 0 q 0.33,-0.09 0.64,-0.12 v 0 0 Q 33.6,6.26 33.88,6.26 v 0 0 q 1.28,0 1.9,0.53 v 0 0 q 0.61,0.53 0.61,1.59 v 0 3.57 0 q 0,0.09 0.02,0.21 v 0 0 q 0.01,0.13 0.06,0.25 v 0 0 q 0.05,0.11 0.15,0.2 v 0 0 q 0.1,0.08 0.27,0.08 v 0 0 q 0.1,0 0.26,-0.03 v 0 0 q 0.15,-0.03 0.31,-0.11 v 0 0.73 0 q -0.33,0.22 -0.66,0.36 v 0 0 q -0.33,0.14 -0.64,0.14 v 0 0 q -0.28,0 -0.46,-0.11 v 0 0 q -0.18,-0.11 -0.3,-0.29 v 0 0 q -0.12,-0.18 -0.19,-0.4 v 0 0 Q 35.14,12.77 35.1,12.56 Z m 0,-0.87 V 10.1 h -0.52 v 0 q -0.8,0 -1.28,0.12 v 0 0 q -0.47,0.11 -0.72,0.3 v 0 0 q -0.25,0.19 -0.33,0.43 v 0 0 q -0.08,0.25 -0.08,0.51 v 0 0 q 0,0.29 0.08,0.52 v 0 0 q 0.08,0.22 0.23,0.38 v 0 0 q 0.15,0.16 0.35,0.25 v 0 0 q 0.21,0.08 0.45,0.08 v 0 0 q 0.18,0 0.38,-0.05 v 0 0 q 0.19,-0.04 0.41,-0.15 v 0 0 q 0.23,-0.12 0.48,-0.31 v 0 0 q 0.24,-0.19 0.55,-0.49 z m 3.93,1.95 V 6.4 h 1.3 v 7.24 z m 0.66,-8.81 v 0 0 q -0.17,0 -0.32,-0.07 v 0 0 Q 39.22,4.7 39.11,4.59 v 0 0 Q 39,4.48 38.94,4.34 v 0 0 Q 38.88,4.19 38.88,4.01 v 0 0 q 0,-0.18 0.06,-0.33 v 0 0 Q 39.01,3.52 39.13,3.4 v 0 0 q 0.11,-0.11 0.26,-0.18 v 0 0 q 0.16,-0.06 0.33,-0.06 v 0 0 q 0.16,0 0.31,0.06 v 0 0 q 0.14,0.07 0.25,0.18 v 0 0 q 0.11,0.12 0.18,0.27 v 0 0 Q 40.52,3.83 40.52,4 v 0 0 q 0,0.18 -0.07,0.34 v 0 0 Q 40.38,4.49 40.27,4.6 v 0 0 Q 40.15,4.7 40,4.76 v 0 0 q -0.15,0.07 -0.31,0.07 z"
       id="path13"
       style="fill:#ffa500;fill-opacity:1" />
  </g>
  <defs
     data-v-fde0c5aa=""
     id="defs16">
    <!---->
  </defs>
  <g
     data-v-fde0c5aa=""
     id="3113bfe0-debc-49a2-a8eb-9214831015a1"
     stroke="none"
     fill="#ffffff"
     transform="matrix(0.83901256,0,0,0.83901256,27.418089,9.3241857)"
     style="fill:#ffa500;fill-opacity:1">
    <path
       d="m 24.838,37.314 a 1.252,1.252 0 0 1 -1.685,0.078 1.255,1.255 0 0 1 -0.165,-1.765 l 5.809,-7.005 7.055,-5.858 a 1.251,1.251 0 0 1 1.764,0.165 1.25,1.25 0 0 1 -0.164,1.763 l -6.876,5.71 -5.659,6.826 a 0.814,0.814 0 0 1 -0.079,0.086 z M 26.637,29.365 15.609,18.338 a 2.09,2.09 0 0 1 0,-2.954 2.09,2.09 0 0 1 2.954,0 l 11.027,11.027 -1.674,1.28 z m 5.302,1.738 43.996,44.312 a 0.207,0.207 0 0 1 0,0.293 0.209,0.209 0 0 1 -0.296,0 L 31.357,31.672 29.614,33.721 c 0,0 49.425,48.242 51.094,49.915 1.671,1.668 4.518,1.364 4.518,1.364 0,0 0.307,-2.843 -1.366,-4.517 C 82.187,78.809 33.946,29.39 33.946,29.39 Z m 30.765,-6.49 a 1.254,1.254 0 0 1 1.689,-1.85 l 7.005,5.809 5.859,7.056 a 1.253,1.253 0 0 1 -1.928,1.6 l -5.712,-6.875 -6.826,-5.66 a 2.109,2.109 0 0 1 -0.087,-0.08 z m 7.951,1.798 11.026,-11.026 a 2.089,2.089 0 0 1 2.954,2.953 L 73.607,29.364 72.328,27.691 Z M 47.522,52.955 24.606,75.707 a 0.207,0.207 0 0 1 -0.296,0 0.206,0.206 0 0 1 0,-0.292 L 47.078,52.52 C 46.498,51.956 45.925,51.397 45.357,50.84 32.107,64.412 17.299,79.574 16.386,80.484 14.717,82.153 15.021,85 15.021,85 c 0,0 2.843,0.308 4.517,-1.364 C 20.454,82.717 35.645,67.879 49.227,54.62 Z M 52.731,46.837 68.347,31.132 66.3,29.389 50.997,45.062 Z m 2.18,2.232 C 63.684,40.503 70.633,33.721 70.633,33.721 L 68.918,31.714 53.202,47.318 Z"
       id="path18"
       style="fill:#ffa500;fill-opacity:1" />
  </g>
  <!---->
</svg>
